<svg width="84" height="88" viewBox="0 0 84 88" fill="none" xmlns="http://www.w3.org/2000/svg">
<g style="mix-blend-mode:luminosity" clip-path="url(#clip0_8_882)" filter="url(#filter0_d_8_882)">
<g filter="url(#filter1_d_8_882)">
<path d="M9.12238 20.1637C2.50551 30.4806 3.32987 43.9034 8.38368 54.8665C8.504 55.1294 8.62992 55.3878 8.75421 55.6471C8.83339 55.8102 8.90814 55.9785 8.99057 56.1398C9.03686 56.2369 9.08921 56.3316 9.13772 56.4243C9.22412 56.5995 9.312 56.7652 9.40164 56.936C9.55867 57.2361 9.71983 57.5345 9.88408 57.8328C9.9752 57.9967 10.0651 58.1607 10.1591 58.3245C10.3413 58.6438 10.528 58.9605 10.7192 59.2751C10.7988 59.4097 10.8762 59.5442 10.9579 59.6741C11.2214 60.1009 11.4908 60.5268 11.7686 60.9448C11.7758 60.9552 11.7838 60.9666 11.7919 60.977C11.8358 61.0446 11.8846 61.1105 11.929 61.1774C12.1692 61.5373 12.4175 61.8921 12.6677 62.2442C12.76 62.3718 12.8536 62.5001 12.9464 62.6284C13.1699 62.9338 13.3977 63.2366 13.6292 63.5391C13.7159 63.6518 13.8027 63.7654 13.8903 63.8764C14.2008 64.273 14.5178 64.6684 14.8422 65.0561C14.8478 65.0632 14.8553 65.071 14.8614 65.0779C14.8745 65.0944 14.8861 65.1048 14.8978 65.1204C15.2141 65.4952 15.5374 65.8622 15.8653 66.2282C15.9668 66.3408 16.0709 66.4545 16.1751 66.5673C16.429 66.8439 16.6869 67.1155 16.9474 67.3887C17.0533 67.4972 17.1581 67.609 17.2632 67.7139C17.6114 68.0696 17.9629 68.4182 18.3215 68.7583C18.3278 68.7652 18.3322 68.7704 18.3383 68.773C18.399 68.832 18.4621 68.8885 18.5221 68.943C18.8384 69.2404 19.1598 69.5354 19.4836 69.8252C19.6156 69.9406 19.749 70.0551 19.8819 70.1695C20.1465 70.3995 20.4138 70.6258 20.6834 70.8486C20.8257 70.9665 20.9684 71.0846 21.1118 71.2026C21.4089 71.4386 21.7083 71.6734 22.011 71.9017C22.1214 71.9884 22.228 72.0715 22.3389 72.1541C22.3693 72.1774 22.3973 72.2018 22.4284 72.2242C22.7155 72.4375 23.0084 72.645 23.3014 72.8506C23.4273 72.9414 23.5525 73.0352 23.6796 73.1236C24.1293 73.4317 24.5855 73.7369 25.0467 74.0328C25.1723 74.1099 25.2985 74.1864 25.4245 74.2635C25.7634 74.4759 26.1045 74.6842 26.4507 74.888C26.6373 74.9972 26.8296 75.1004 27.0179 75.2045C27.2625 75.3442 27.5048 75.4846 27.7526 75.6182C27.8089 75.6494 27.8673 75.679 27.9229 75.7076C28.022 75.7596 28.1227 75.811 28.2231 75.8655C28.6076 76.065 28.9954 76.2601 29.3864 76.45C29.47 76.4898 29.5504 76.5298 29.6331 76.5689C30.0814 76.7813 30.5334 76.9868 30.9908 77.1822C31.1003 77.2298 31.2111 77.2757 31.3215 77.3236C31.7441 77.4997 32.1723 77.6739 32.6019 77.838C32.6566 77.8588 32.7091 77.8778 32.7629 77.8977C33.235 78.0773 33.7116 78.2429 34.1917 78.4052C34.3059 78.4417 34.4211 78.4817 34.5362 78.518C35.0247 78.6775 35.5069 78.8675 36.0114 78.9689C68.01 85.2992 77.3049 58.1071 77.3049 58.1071C69.4989 69.1406 55.6418 72.0516 42.5129 68.8107C42.0151 68.6893 41.5329 68.5211 41.0476 68.3649C40.9241 68.3251 40.8034 68.2853 40.6819 68.2445C40.2081 68.0866 39.7384 67.921 39.2711 67.7467C39.2071 67.7224 39.1424 67.6965 39.0772 67.671C38.6588 67.5115 38.2454 67.3433 37.8331 67.1705C37.7168 67.1203 37.6004 67.0726 37.4845 67.0222C37.0329 66.8288 36.584 66.6266 36.1413 66.416C36.0498 66.3742 35.9626 66.3301 35.8731 66.2866C35.4923 66.1 35.1156 65.9119 34.7394 65.7158C34.6315 65.6587 34.5227 65.6032 34.4124 65.5451C34.1181 65.3898 33.8263 65.2241 33.5361 65.0619C33.3415 64.9509 33.1436 64.8451 32.9514 64.7297C32.5963 64.5233 32.2478 64.309 31.9011 64.0905C31.7832 64.0185 31.6645 63.9498 31.5461 63.8761C31.0847 63.5813 30.629 63.2759 30.1781 62.9662C30.0538 62.8805 29.9318 62.7885 29.8092 62.7001C29.4821 62.471 29.1563 62.2386 28.836 61.9974C28.7297 61.9211 28.6267 61.8361 28.5223 61.7589C28.2123 61.5221 27.9062 61.2811 27.6019 61.0373C27.4644 60.9271 27.3281 60.8125 27.1942 60.7023C26.9156 60.4709 26.6382 60.2384 26.364 59.998C26.2404 59.8913 26.1161 59.7838 25.9937 59.6762C25.6447 59.3649 25.3002 59.0526 24.9596 58.7316C24.924 58.6969 24.8853 58.6639 24.8465 58.6284C24.4786 58.2772 24.1165 57.9171 23.7595 57.5554C23.6556 57.4479 23.5549 57.3438 23.4533 57.2353C23.1883 56.9631 22.9281 56.6871 22.6723 56.4053C22.5699 56.2943 22.4667 56.1841 22.366 56.074C22.0403 55.7114 21.7208 55.3454 21.4075 54.9733C21.3918 54.9551 21.3755 54.9386 21.3603 54.9186C21.0288 54.5256 20.705 54.1241 20.388 53.7181C20.3021 53.6071 20.2186 53.4996 20.1334 53.3902C19.8972 53.0813 19.6629 52.7681 19.4342 52.4517C19.3478 52.3389 19.262 52.2217 19.1771 52.1055C18.9021 51.7178 18.6327 51.332 18.3688 50.938C11.0793 40.1529 8.4605 25.2753 14.2862 13.0571" fill="#1572B6"/>
<path d="M29.6616 11.4715C24.8764 18.9424 25.1364 28.9416 28.8689 36.8429C29.495 38.1673 30.1986 39.452 30.9857 40.6759C31.7024 41.7905 32.4968 43.1167 33.4481 44.0117C33.7936 44.4237 34.1538 44.8262 34.522 45.221C34.6152 45.3251 34.7103 45.4232 34.8054 45.5254C35.1623 45.9002 35.5261 46.2705 35.9019 46.6296C35.9174 46.6435 35.9311 46.6598 35.9467 46.6712C35.9507 46.6763 35.9547 46.6782 35.957 46.6833C36.3728 47.0781 36.8021 47.4588 37.2382 47.8327C37.3349 47.9125 37.4309 47.9966 37.5288 48.079C37.9657 48.4424 38.4116 48.8008 38.8688 49.1408C38.8823 49.1511 38.894 49.1616 38.9076 49.1738C39.1091 49.3238 39.3149 49.4651 39.5189 49.6102C39.6172 49.6796 39.7104 49.7533 39.8092 49.8183C40.1353 50.0448 40.4661 50.266 40.8022 50.4784C40.8497 50.5106 40.8966 50.5365 40.9426 50.5661C41.2323 50.7473 41.5262 50.926 41.8209 51.0986C41.9237 51.1619 42.0284 51.2165 42.1332 51.2755C42.3367 51.391 42.5402 51.5079 42.7476 51.6207C42.7775 51.6364 42.81 51.6519 42.8399 51.6658C43.2616 51.8912 43.6874 52.1083 44.1215 52.3129C44.2139 52.357 44.3098 52.3968 44.4046 52.4394C44.7512 52.599 45.1022 52.7553 45.454 52.9018C45.6035 52.9634 45.7546 53.0215 45.9041 53.0815C46.2235 53.2099 46.545 53.3276 46.8684 53.4457C47.0147 53.4959 47.1581 53.5481 47.3045 53.5965C47.7646 53.7509 48.2191 53.9469 48.6988 54.0336C73.4046 58.4747 79.1088 37.8375 79.1088 37.8375C73.9666 45.8695 64.0097 49.7044 53.3844 46.7118C52.9127 46.5775 52.4477 46.4308 51.9858 46.2729C51.8442 46.2262 51.7052 46.1758 51.5651 46.1254C51.2364 46.0101 50.9098 45.8871 50.5861 45.7596C50.4377 45.7013 50.2897 45.6425 50.1443 45.5817C49.7893 45.4334 49.4386 45.2807 49.0908 45.1202C48.996 45.0761 48.8997 45.0369 48.807 44.9902C48.3709 44.7846 47.9415 44.5669 47.5177 44.3414C47.2998 44.2249 47.086 44.1029 46.8718 43.984C46.7478 43.9138 46.623 43.8444 46.4987 43.7749C46.2233 43.6126 45.9503 43.4453 45.6804 43.2744C45.6169 43.2346 45.5501 43.1973 45.4854 43.1546C45.1505 42.9422 44.821 42.7237 44.4947 42.4989C44.394 42.4287 44.2973 42.3532 44.1965 42.282C43.9811 42.1304 43.766 41.9768 43.5549 41.8215C43.0996 41.4816 42.6562 41.1242 42.2196 40.7616C42.1189 40.6757 42.0178 40.5916 41.919 40.5057C37.2677 36.5217 33.582 31.0771 31.8293 24.9047C29.9925 18.5016 30.3879 11.316 33.5704 5.48364" fill="#1572B6"/>
<path d="M46.9359 4.9774C44.1151 9.48094 43.8381 15.074 45.7954 20.0484C47.8593 25.3283 52.0889 29.4701 57.026 31.433C57.2294 31.5154 57.4325 31.5892 57.6392 31.6647C57.729 31.695 57.8182 31.728 57.9093 31.7566C58.2001 31.8563 58.4891 31.9718 58.7897 32.0332C72.4313 34.893 76.1314 24.4383 77.1165 22.8994C73.8748 27.9624 68.4283 29.1777 61.7448 27.4186C61.2166 27.278 60.6362 27.0717 60.1276 26.8756C59.4752 26.624 58.8325 26.336 58.2073 26.0108C57.0208 25.3923 55.8898 24.6412 54.8404 23.7824C48.8603 18.8591 45.1446 9.46782 49.0471 1.81897" fill="#1572B6"/>
</g>
</g>
<defs>
<filter id="filter0_d_8_882" x="0.0623779" y="0" width="83.4917" height="89.9" filterUnits="userSpaceOnUse" color-interpolation-filters="sRGB">
<feFlood flood-opacity="0" result="BackgroundImageFix"/>
<feColorMatrix in="SourceAlpha" type="matrix" values="0 0 0 0 0 0 0 0 0 0 0 0 0 0 0 0 0 0 127 0" result="hardAlpha"/>
<feOffset dy="4"/>
<feGaussianBlur stdDeviation="2"/>
<feComposite in2="hardAlpha" operator="out"/>
<feColorMatrix type="matrix" values="0 0 0 0 0 0 0 0 0 0 0 0 0 0 0 0 0 0 0.25 0"/>
<feBlend mode="normal" in2="BackgroundImageFix" result="effect1_dropShadow_8_882"/>
<feBlend mode="normal" in="SourceGraphic" in2="effect1_dropShadow_8_882" result="shape"/>
</filter>
<filter id="filter1_d_8_882" x="0.376465" y="1.81897" width="82.7323" height="86.1056" filterUnits="userSpaceOnUse" color-interpolation-filters="sRGB">
<feFlood flood-opacity="0" result="BackgroundImageFix"/>
<feColorMatrix in="SourceAlpha" type="matrix" values="0 0 0 0 0 0 0 0 0 0 0 0 0 0 0 0 0 0 127 0" result="hardAlpha"/>
<feOffset dy="4"/>
<feGaussianBlur stdDeviation="2"/>
<feComposite in2="hardAlpha" operator="out"/>
<feColorMatrix type="matrix" values="0 0 0 0 0 0 0 0 0 0 0 0 0 0 0 0 0 0 0.25 0"/>
<feBlend mode="normal" in2="BackgroundImageFix" result="effect1_dropShadow_8_882"/>
<feBlend mode="normal" in="SourceGraphic" in2="effect1_dropShadow_8_882" result="shape"/>
</filter>
<clipPath id="clip0_8_882">
<rect width="75.4917" height="81.9" fill="white" transform="translate(4.06238)"/>
</clipPath>
</defs>
</svg>
