<svg width="74" height="67" viewBox="0 0 74 67" fill="none" xmlns="http://www.w3.org/2000/svg">
<path d="M5.12238 7.1636C-1.49449 17.4804 -0.670131 30.9033 4.38368 41.8663C4.504 42.1293 4.62992 42.3877 4.75421 42.647C4.83339 42.8101 4.90814 42.9784 4.99057 43.1396C5.03686 43.2367 5.08921 43.3314 5.13772 43.4242C5.22412 43.5994 5.31199 43.7651 5.40164 43.9359C5.55867 44.236 5.71983 44.5343 5.88408 44.8327C5.9752 44.9966 6.06514 45.1606 6.15906 45.3244C6.34131 45.6437 6.52797 45.9604 6.71921 46.275C6.79883 46.4096 6.87624 46.5441 6.95792 46.674C7.2214 47.1007 7.49079 47.5267 7.76857 47.9447C7.7758 47.9551 7.78376 47.9665 7.79187 47.9769C7.83581 48.0445 7.88461 48.1104 7.92899 48.1773C8.16918 48.5372 8.41748 48.892 8.66769 49.2441C8.75999 49.3717 8.85362 49.5 8.94636 49.6283C9.16989 49.9337 9.39769 50.2365 9.62918 50.5389C9.71587 50.6517 9.80272 50.7653 9.8903 50.8763C10.2008 51.2728 10.5178 51.6683 10.8422 52.056C10.8478 52.0631 10.8553 52.0709 10.8614 52.0778C10.8745 52.0942 10.8861 52.1046 10.8978 52.1203C11.2141 52.4951 11.5374 52.8621 11.8653 53.2281C11.9668 53.3407 12.0709 53.4544 12.1751 53.5672C12.429 53.8437 12.6869 54.1154 12.9474 54.3886C13.0533 54.497 13.1581 54.6088 13.2632 54.7138C13.6114 55.0695 13.9629 55.4181 14.3215 55.7582C14.3278 55.765 14.3322 55.7703 14.3383 55.7729C14.399 55.8319 14.4621 55.8884 14.5221 55.9429C14.8384 56.2403 15.1598 56.5353 15.4836 56.8251C15.6156 56.9404 15.749 57.055 15.8819 57.1693C16.1465 57.3994 16.4138 57.6257 16.6834 57.8485C16.8257 57.9664 16.9684 58.0845 17.1118 58.2025C17.4089 58.4385 17.7083 58.6733 18.011 58.9015C18.1214 58.9882 18.228 59.0714 18.3389 59.154C18.3693 59.1773 18.3973 59.2016 18.4284 59.224C18.7155 59.4374 19.0084 59.6449 19.3014 59.8504C19.4273 59.9413 19.5525 60.035 19.6796 60.1235C20.1293 60.4316 20.5855 60.7368 21.0467 61.0327C21.1723 61.1098 21.2985 61.1863 21.4245 61.2634C21.7634 61.4758 22.1045 61.6841 22.4507 61.8879C22.6373 61.9971 22.8296 62.1003 23.0179 62.2044C23.2625 62.3441 23.5048 62.4845 23.7526 62.6181C23.8089 62.6493 23.8673 62.6789 23.9229 62.7075C24.022 62.7595 24.1227 62.8108 24.2231 62.8654C24.6076 63.0649 24.9954 63.26 25.3864 63.4499C25.47 63.4897 25.5504 63.5297 25.6331 63.5687C26.0814 63.7812 26.5334 63.9867 26.9908 64.182C27.1003 64.2297 27.2111 64.2756 27.3215 64.3234C27.7441 64.4995 28.1723 64.6737 28.6019 64.8379C28.6566 64.8587 28.7091 64.8777 28.7629 64.8975C29.235 65.0772 29.7116 65.2427 30.1917 65.4051C30.3059 65.4416 30.4211 65.4815 30.5362 65.5179C31.0247 65.6773 31.5069 65.8674 32.0114 65.9688C64.01 72.2991 73.3049 45.107 73.3049 45.107C65.4989 56.1405 51.6418 59.0514 38.5129 55.8106C38.0151 55.6892 37.5329 55.5209 37.0475 55.3648C36.9241 55.325 36.8034 55.2852 36.6819 55.2444C36.2081 55.0865 35.7384 54.9209 35.2711 54.7466C35.2071 54.7223 35.1424 54.6963 35.0772 54.6709C34.6588 54.5114 34.2454 54.3431 33.8331 54.1704C33.7168 54.1202 33.6004 54.0725 33.4845 54.0221C33.0329 53.8287 32.584 53.6265 32.1413 53.4158C32.0498 53.3741 31.9626 53.33 31.8731 53.2864C31.4923 53.0999 31.1156 52.9118 30.7394 52.7157C30.6315 52.6586 30.5227 52.6031 30.4124 52.545C30.1181 52.3897 29.8263 52.224 29.5361 52.0618C29.3415 51.9508 29.1436 51.845 28.9514 51.7295C28.5963 51.5232 28.2478 51.3088 27.9011 51.0903C27.7832 51.0184 27.6645 50.9497 27.5461 50.876C27.0847 50.5812 26.629 50.2758 26.1781 49.9661C26.0538 49.8804 25.9318 49.7884 25.8092 49.7C25.4821 49.4709 25.1563 49.2385 24.836 48.9972C24.7297 48.9209 24.6267 48.836 24.5223 48.7587C24.2123 48.522 23.9062 48.2809 23.6019 48.0372C23.4644 47.9269 23.3281 47.8124 23.1942 47.7022C22.9156 47.4707 22.6382 47.2383 22.364 46.9979C22.2404 46.8912 22.1161 46.7837 21.9937 46.676C21.6447 46.3648 21.3002 46.0525 20.9596 45.7315C20.924 45.6968 20.8853 45.6638 20.8465 45.6283C20.4786 45.277 20.1165 44.917 19.7595 44.5553C19.6556 44.4478 19.5549 44.3437 19.4533 44.2352C19.1883 43.963 18.9281 43.687 18.6723 43.4052C18.5699 43.2942 18.4667 43.1839 18.366 43.0739C18.0403 42.7113 17.7208 42.3453 17.4075 41.9732C17.3918 41.955 17.3755 41.9385 17.3603 41.9185C17.0288 41.5255 16.705 41.124 16.388 40.718C16.3021 40.607 16.2186 40.4995 16.1334 40.3901C15.8972 40.0812 15.6629 39.768 15.4342 39.4516C15.3478 39.3388 15.262 39.2215 15.1771 39.1054C14.9021 38.7177 14.6327 38.3318 14.3688 37.9379C7.07927 27.1528 4.4605 12.2752 10.2862 0.0570068" fill="#F0F2F3"/>
</svg>
